<svg xmlns="http://www.w3.org/2000/svg" width="1024" height="1024" viewBox="0 0 1024 1024">
  <defs>
    <linearGradient id="tile" x1="180" y1="92" x2="846" y2="936" gradientUnits="userSpaceOnUse">
      <stop offset="0" stop-color="#292c31"/>
      <stop offset="1" stop-color="#121417"/>
    </linearGradient>
    <linearGradient id="silver" x1="280" y1="236" x2="738" y2="808" gradientUnits="userSpaceOnUse">
      <stop offset="0" stop-color="#f4f6f8"/>
      <stop offset="1" stop-color="#cbd1d8"/>
    </linearGradient>
    <linearGradient id="live" x1="720" y1="244" x2="778" y2="304" gradientUnits="userSpaceOnUse">
      <stop offset="0" stop-color="#8ee19d"/>
      <stop offset="1" stop-color="#4fbe70"/>
    </linearGradient>
    <filter id="shadow" x="-20%" y="-20%" width="140%" height="145%">
      <feDropShadow dx="0" dy="22" stdDeviation="28" flood-color="#000000" flood-opacity=".38"/>
    </filter>
  </defs>

  <rect x="54" y="54" width="916" height="916" rx="202" fill="url(#tile)" filter="url(#shadow)"/>
  <rect x="60" y="60" width="904" height="904" rx="196" fill="none" stroke="#ffffff" stroke-opacity=".10" stroke-width="8"/>

  <path d="M430 222 A306 306 0 1 0 760 278" fill="none" stroke="url(#silver)" stroke-width="54" stroke-linecap="round"/>
  <circle cx="760" cy="278" r="32" fill="url(#live)"/>

  <path d="M350 378 H472 M552 378 H674 V630 Q674 678 626 678 H398 Q350 678 350 630 V378"
        fill="none" stroke="url(#silver)" stroke-width="36" stroke-linecap="round" stroke-linejoin="round"/>

  <line x1="512" y1="350" x2="512" y2="560" stroke="url(#silver)" stroke-width="22" stroke-linecap="round"/>
  <circle cx="512" cy="568" r="23" fill="#1a1d21" stroke="url(#silver)" stroke-width="12"/>
</svg>
